<?xml version="1.0" standalone="no"?>
<!DOCTYPE svg PUBLIC "-//W3C//DTD SVG 1.1//EN" "http://www.w3.org/Graphics/SVG/1.1/DTD/svg11.dtd" >
<svg xmlns="http://www.w3.org/2000/svg">
<metadata>Generated by IcoMoon</metadata>
<defs>
<font id="xkicon" horiz-adv-x="1024">
<font-face units-per-em="1024" ascent="960" descent="-64" />
<missing-glyph horiz-adv-x="1024" />
<glyph unicode="&#x20;" horiz-adv-x="512" d="" />
<glyph unicode="&#xe900;" glyph-name="angle-right" d="M716.237 448l-74.445-73.728-260.557-258.56-74.445 73.728 260.557 258.56-260.557 258.56 74.445 73.728 260.557-258.56z" />
<glyph unicode="&#xe901;" glyph-name="arrow-left" d="M838.4 396.8h-467.149l176.486-184.32-68.608-71.68-294.144 307.2 294.144 307.2 68.608-71.68-176.486-184.32h467.149v-102.4z" />
<glyph unicode="&#xe902;" glyph-name="bar-chart" d="M410.368 38.4h203.264v819.2h-203.264v-819.2zM102.4 38.4h204.8v460.288h-204.8v-460.288zM716.8 601.6v-563.2h204.8v563.2h-204.8z" />
<glyph unicode="&#xe903;" glyph-name="bell" horiz-adv-x="870" d="M768 243.2v281.6c0.002 0.411 0.003 0.897 0.003 1.384 0 155.912-108.297 286.53-253.771 320.734l-2.232 36.282c0 42.415-34.385 76.8-76.8 76.8s-76.8-34.385-76.8-76.8v-35.84c-147.706-34.646-256.003-165.264-256.003-321.176 0-0.486 0.001-0.973 0.003-1.459v-281.525l-102.4-102.4v-51.2h870.4v51.2zM435.2-64c56.484 0.174 102.226 45.916 102.4 102.383l-204.8 0.017c0.174-56.484 45.916-102.226 102.383-102.4z" />
<glyph unicode="&#xe904;" glyph-name="caret-down" d="M768 601.6l-256-307.2-256 307.2h512z" />
<glyph unicode="&#xe905;" glyph-name="caret-left" d="M665.6 704l-307.2-256 307.2-256v512z" />
<glyph unicode="&#xe906;" glyph-name="caret-right" d="M358.4 704l307.2-256-307.2-256v512z" />
<glyph unicode="&#xe907;" glyph-name="check" d="M396.646 357.376l-149.35 146.432-93.389-95.232 242.739-241.664 473.446 467.456-93.338 95.232z" />
<glyph unicode="&#xe908;" glyph-name="checkbox-checked" d="M102.4 857.6v-819.2h819.2v819.2h-819.2zM153.6 806.4h716.8v-716.8h-716.8v716.8zM438.426 370.688l-117.043 107.008-73.114-70.144 190.157-176.64 370.944 342.528-73.165 69.632z" />
<glyph unicode="&#xe909;" glyph-name="checkbox-unchecked" d="M102.4 857.6v-819.2h819.2v819.2h-819.2zM153.6 806.4h716.8v-716.8h-716.8v716.8z" />
<glyph unicode="&#xe90a;" glyph-name="commenting" d="M896 166.4h-716.8l-153.6-153.6v768c0 56.554 45.846 102.4 102.4 102.4h768c56.554 0 102.4-45.846 102.4-102.4v-512c0-56.554-45.846-102.4-102.4-102.4zM256 576c-42.415 0-76.8-34.385-76.8-76.8s34.385-76.8 76.8-76.8c42.415 0 76.8 34.385 76.8 76.8s-34.385 76.8-76.8 76.8zM512 576c-42.415 0-76.8-34.385-76.8-76.8s34.385-76.8 76.8-76.8c42.415 0 76.8 34.385 76.8 76.8s-34.385 76.8-76.8 76.8zM768 576c-42.415 0-76.8-34.385-76.8-76.8s34.385-76.8 76.8-76.8c42.415 0 76.8 34.385 76.8 76.8s-34.385 76.8-76.8 76.8z" />
<glyph unicode="&#xe90b;" glyph-name="complete" d="M512 908.8c-254.493 0-460.8-206.307-460.8-460.8s206.307-460.8 460.8-460.8c254.493 0 460.8 206.307 460.8 460.8s-206.307 460.8-460.8 460.8zM512 806.4c197.939 0 358.4-160.461 358.4-358.4s-160.461-358.4-358.4-358.4c-197.939 0-358.4 160.461-358.4 358.4s160.461 358.4 358.4 358.4zM438.426 370.688l-117.043 107.008-73.114-70.144 190.157-176.64 370.944 342.528-73.165 69.632z" />
<glyph unicode="&#xe90c;" glyph-name="coupon" d="M880.64 448c-0.009 0.482-0.014 1.050-0.014 1.62 0 51.407 40.974 93.244 92.045 94.633l0.129 191.491c0.012 0.571 0.020 1.245 0.020 1.92 0 51.347-41.012 93.115-92.066 94.334l-737.393 0.002c-50.923-1.244-91.728-42.819-91.728-93.926 0-0.819 0.010-1.636 0.031-2.451l-0.002-191.368c51.032-2.554 91.443-44.552 91.443-95.989 0-51.599-40.665-93.7-91.696-96.003l-0.208-192.007c-0.012-0.571-0.020-1.245-0.020-1.92 0-51.347 41.012-93.115 92.066-94.334l737.393-0.002c51.167 1.221 92.18 42.989 92.18 94.336 0 0.675-0.007 1.348-0.021 2.020l0.002 191.9c-51.147 1.14-92.173 42.872-92.173 94.186 0 0.548 0.005 1.095 0.014 1.64zM654.797 231.936l-142.49 95.232-142.49-95.232 43.008 170.496-130.97 111.616 168.96 10.24 61.696 163.328 61.44-163.328 168.96-10.752-130.918-111.104z" />
<glyph unicode="&#xe90d;" glyph-name="exclamation-circle" d="M512 908.8c-254.493 0-460.8-206.307-460.8-460.8s206.307-460.8 460.8-460.8c254.493 0 460.8 206.307 460.8 460.8s-206.307 460.8-460.8 460.8zM512 806.4c197.939 0 358.4-160.461 358.4-358.4s-160.461-358.4-358.4-358.4c-197.939 0-358.4 160.461-358.4 358.4s160.461 358.4 358.4 358.4zM460.8 704h102.4v-358.4h-102.4v358.4zM460.8 294.4h102.4v-102.4h-102.4v102.4z" />
<glyph unicode="&#xe90e;" glyph-name="gear" d="M863.744 402.944c2.118 13.541 3.328 29.157 3.328 45.056s-1.21 31.515-3.543 46.762l100.106 74.582c5.365 4.14 8.787 10.571 8.787 17.801 0 4.198-1.153 8.126-3.16 11.485l-94.612 159.642c-4.307 7.042-11.956 11.671-20.685 11.671-2.938 0-5.754-0.524-8.359-1.485l-117.592-46.026c-23.057 17.663-49.432 32.812-77.707 44.246l-20.29 123.178c-1.896 10.83-11.229 18.956-22.46 18.956-0.258 0-0.515-0.004-0.771-0.013l-189.403 0.001c-0.219 0.008-0.476 0.012-0.734 0.012-11.231 0-20.564-8.126-22.44-18.819l-18.042-122.505c-30.536-12.506-56.886-27.634-80.886-45.714l-116.848 46.738c-2.528 1.018-5.458 1.609-8.527 1.609-8.676 0-16.249-4.722-20.289-11.736l-94.729-159.857c-2.041-3.272-3.252-7.245-3.252-11.501 0-7.227 3.49-13.638 8.876-17.641l99.95-76.33c-2.118-13.541-3.328-29.157-3.328-45.056s1.21-31.515 3.543-46.762l-100.106-74.582c-5.365-4.14-8.787-10.571-8.787-17.801 0-4.198 1.153-8.126 3.16-11.485l94.612-159.642c4.307-7.042 11.956-11.671 20.685-11.671 2.938 0 5.754 0.524 8.359 1.485l117.592 46.026c23.058-17.653 49.432-32.801 77.703-44.244l20.294-123.18c1.896-10.83 11.229-18.956 22.46-18.956 0.258 0 0.515 0.004 0.771 0.013l189.403-0.001c0.219-0.008 0.476-0.012 0.734-0.012 11.231 0 20.564 8.126 22.44 18.819l18.042 122.505c30.535 12.491 56.887 27.62 80.88 45.71l116.854-46.734c2.528-1.018 5.458-1.609 8.527-1.609 8.676 0 16.249 4.722 20.289 11.736l94.729 159.857c1.95 3.257 3.104 7.185 3.104 11.383 0 7.231-3.422 13.662-8.735 17.763zM512 276.48c-85.376 2.593-153.6 72.425-153.6 158.191 0 87.404 70.855 158.259 158.259 158.259 87.398 0 158.249-70.845 158.259-158.241-1.519-87.706-72.974-158.222-160.899-158.222-0.71 0-1.419 0.005-2.127 0.014z" />
<glyph unicode="&#xe90f;" glyph-name="image" d="M25.6 857.6v-819.2h972.8v819.2h-972.8zM128 755.2h768v-614.4h-768v614.4zM76.8 140.8l256 358.4 204.8-307.2 153.6 153.6 256-256zM742.4 652.8c56.554 0 102.4-45.846 102.4-102.4s-45.846-102.4-102.4-102.4c-56.554 0-102.4 45.846-102.4 102.4s45.846 102.4 102.4 102.4z" />
<glyph unicode="&#xe910;" glyph-name="imagetext" d="M25.6 857.6v-819.2h972.8v819.2h-972.8zM128 755.2h768v-614.4h-768v614.4zM179.2 704h409.6v-307.2h-409.6v307.2zM640 704h204.8v-102.4h-204.8v102.4zM640 499.2h204.8v-102.4h-204.8v102.4zM179.2 345.6h665.6v-51.2h-665.6v51.2zM179.2 243.2h665.6v-51.2h-665.6v51.2z" />
<glyph unicode="&#xe911;" glyph-name="info-circle" d="M512 908.8c-254.493 0-460.8-206.307-460.8-460.8s206.307-460.8 460.8-460.8c254.493 0 460.8 206.307 460.8 460.8s-206.307 460.8-460.8 460.8zM512 806.4c197.939 0 358.4-160.461 358.4-358.4s-160.461-358.4-358.4-358.4c-197.939 0-358.4 160.461-358.4 358.4s160.461 358.4 358.4 358.4zM460.8 550.4h102.4v-358.4h-102.4v358.4zM460.8 704h102.4v-102.4h-102.4v102.4z" />
<glyph unicode="&#xe912;" glyph-name="key" d="M820.019 691.2l-63.437-192.512-146.022 47.616-26.726-79.36c81.196-44.316 135.358-129.081 135.358-226.496 0-142.035-115.142-257.178-257.178-257.178s-257.178 115.142-257.178 257.178c0 136.547 106.415 248.238 240.837 256.667l138.979 411.173 133.12-42.496-42.701-127.488zM493.568 340.48c-9.545 3.246-20.54 5.12-31.973 5.12-56.554 0-102.4-45.846-102.4-102.4s45.846-102.4 102.4-102.4c45.206 0 83.57 29.293 97.146 69.934 3.37 10.164 5.194 21.035 5.194 32.332 0 45.080-29.044 83.377-69.44 97.2z" />
<glyph unicode="&#xe913;" glyph-name="keyboard" d="M102.39 789.282c-56.548 0-102.39-45.841-102.39-102.39v-477.819c0-56.548 45.841-102.39 102.39-102.39h819.118c56.548 0 102.39 45.841 102.39 102.39v477.819c0 56.548-45.841 102.39-102.39 102.39h-819.118zM68.26 721.022h887.378v-546.079h-887.378v546.079zM136.52 618.633h68.26v-68.26h-68.26v68.26zM136.52 345.593h68.26v-68.26h-68.26v68.26zM273.039 345.593h477.819v-68.26h-477.819v68.26zM273.039 618.633h68.26v-68.26h-68.26v68.26zM409.559 618.633h68.26v-68.26h-68.26v68.26zM546.079 618.633h68.26v-68.26h-68.26v68.26zM682.598 618.633h68.26v-68.26h-68.26v68.26zM819.118 345.593h68.26v-68.26h-68.26v68.26zM614.339 482.113h68.26v-68.26h-68.26v68.26zM477.819 482.113h68.26v-68.26h-68.26v68.26zM341.299 482.113h68.26v-68.26h-68.26v68.26zM136.52 482.113h136.52v-68.26h-136.52v68.26zM819.118 618.633h68.26v-136.52h-68.26v136.52zM750.858 482.113h136.52v-68.26h-136.52v68.26z" />
<glyph unicode="&#xe914;" glyph-name="link-news" d="M25.6 38.4v819.2h972.8v-819.2h-972.8zM896 755.2h-768v-614.4h768v614.4zM588.8 499.2h-102.4v102.4h-204.8v-102.4h-102.4v204.8h409.6v-204.8zM435.2 550.4v-204.8h-102.4v204.8h102.4zM281.6 294.4h204.8v102.4h102.4v-204.8h-409.6v204.8h102.4v-102.4zM844.8 601.6h-204.8v102.4h204.8v-102.4zM844.8 396.8h-204.8v102.4h204.8v-102.4zM844.8 192h-204.8v102.4h204.8v-102.4z" />
<glyph unicode="&#xe915;" glyph-name="list" d="M0 960v-1024h1024v1024h-1024zM51.2 908.8h921.6v-921.6h-921.6v921.6zM153.6 806.4h716.8v-102.4h-716.8v102.4zM153.6 601.6h716.8v-102.4h-716.8v102.4zM153.6 396.8h716.8v-102.4h-716.8v102.4zM153.6 192h716.8v-102.4h-716.8v102.4z" />
<glyph unicode="&#xe916;" glyph-name="lock" d="M670.72 576h-317.44v102.4c0 87.659 71.061 158.72 158.72 158.72s158.72-71.061 158.72-158.72v-102.4zM512 166.4c-56.554 0-102.4 45.846-102.4 102.4s45.846 102.4 102.4 102.4c56.554 0 102.4-45.846 102.4-102.4-0.174-56.484-45.916-102.226-102.383-102.4zM819.2 576h-51.2v102.4c0 141.385-114.615 256-256 256s-256-114.615-256-256v-102.4h-51.2c-56.484-0.174-102.226-45.916-102.4-102.383v-409.617c0.174-56.484 45.916-102.226 102.383-102.4h614.417c56.484 0.174 102.226 45.916 102.4 102.383v409.617c-0.174 56.484-45.916 102.226-102.383 102.4z" />
<glyph unicode="&#xe917;" glyph-name="microphone" d="M563.2 119.296v-106.496h102.4v-51.2h-307.2v51.2h102.4v106.496c-174.613 25.776-307.12 174.553-307.2 354.295v204.809h102.4v-204.8c0-141.385 114.615-256 256-256s256 114.615 256 256v204.8h102.4v-204.8c-0.080-179.75-132.587-328.528-305.247-354.067zM512 320c-113.108 0-204.8 91.692-204.8 204.8v204.8c0 113.108 91.692 204.8 204.8 204.8s204.8-91.692 204.8-204.8v-204.8c0-113.108-91.692-204.8-204.8-204.8z" />
<glyph unicode="&#xe918;" glyph-name="pencil" d="M954.931 703.232c9.427 8.957 15.291 21.585 15.291 35.584s-5.864 26.627-15.27 35.564l-117.167 117.268c-8.977 9.464-21.644 15.353-35.686 15.353s-26.709-5.888-35.666-15.331l-91.72-91.67 193.638-193.536zM53.197 183.552v-193.536h193.587l560.384 565.248-193.587 193.536z" />
<glyph unicode="&#xe919;" glyph-name="pie-chart" d="M563.2 422.4h409.6c-0.25-96.733-31.953-186.013-85.418-258.205zM563.2 933.888c230.635-30.435 407.141-224.634 409.598-460.547l-409.598-0.253v460.8zM818.227 70.144c-80.348-67.178-184.652-108.114-298.505-108.544-1.28-0.011-2.683-0.018-4.087-0.018-254.502 0-460.817 206.315-460.817 460.817 0 253.098 204.044 458.539 456.609 460.798l0.215-460.798z" />
<glyph unicode="&#xe91a;" glyph-name="plus" d="M819.2 396.8h-256v-256h-102.4v256h-256v102.4h256v256h102.4v-256h256v-102.4z" />
<glyph unicode="&#xe91b;" glyph-name="power-off" d="M512 38.4c-225.88 0.444-408.82 183.658-408.82 409.599 0 170.561 104.25 316.774 252.507 378.394l2.712-113.689c-92.472-54.104-153.6-152.935-153.6-266.043 0-169.662 137.538-307.2 307.2-307.2s307.2 137.538 307.2 307.2c0 113.108-61.128 211.939-152.15 265.258l-1.45 115.473c150.969-62.619 255.22-208.831 255.22-379.393 0-225.941-182.939-409.155-408.777-409.599zM512 499.2c-28.277 0-51.2 22.923-51.2 51.2v256c0 28.277 22.923 51.2 51.2 51.2s51.2-22.923 51.2-51.2v-256c0-28.277-22.923-51.2-51.2-51.2z" />
<glyph unicode="&#xe91c;" glyph-name="puzzle-piece" d="M844.8 243.2c-9.101 0.075-17.938 1.003-26.495 2.709l0.895-156.309c0-56.554-45.846-102.4-102.4-102.4h-153.6v102.4h-2.56c-12.275 58.906-63.763 102.528-125.44 102.528s-113.165-43.622-125.295-101.696l-2.705-0.832v-102.4h-153.6c-56.554 0-102.4 45.846-102.4 102.4v153.6h102.4v2.56c58.906 12.275 102.528 63.763 102.528 125.44s-43.622 113.165-101.696 125.295l-0.832 2.705h-102.4v153.6c0 56.554 45.846 102.4 102.4 102.4h156.16c-1.613 7.689-2.544 16.531-2.56 25.588 0 70.705 57.308 128.012 128 128.012s128-57.308 128-128c-0.016-9.069-0.947-17.91-2.706-26.45l156.306 0.85c56.554 0 102.4-45.846 102.4-102.4v-156.16c7.662 1.557 16.499 2.485 25.54 2.56 70.752 0 128.060-57.307 128.060-128s-57.308-128-128-128z" />
<glyph unicode="&#xe91d;" glyph-name="question" horiz-adv-x="1078" d="M916.211 97.684h-215.148l-162.115-162.223-162.115 162.223h-215.148c-29.765 0-53.895 24.129-53.895 53.895v754.526c0 29.765 24.129 53.895 53.895 53.895h754.526c29.765 0 53.895-24.129 53.895-53.895v-754.526c0-29.765-24.129-53.895-53.895-53.895zM485.053 205.474h107.789v107.789h-107.789v-107.789zM696.266 802.088c-39.209 31.424-89.55 50.431-144.33 50.431-4.208 0-8.391-0.112-12.544-0.334-2.712 0.197-6.566 0.295-10.443 0.295-52.16 0-100.174-17.748-138.334-47.534-37.568-33.103-62.769-80.419-67.198-133.634l84.297-9.89c7.33 43.655 0 62.518 23.552 82.998 30.176 24.295 67.941 40.326 109.246 44.134 1.839 0.089 3.054 0.106 4.273 0.106 33.983 0 64.95-12.911 88.264-34.096 22.661-18.973 37.094-47.345 37.295-79.094 0.002-0.226 0.003-0.452 0.003-0.678 0-16.715-4.756-32.318-12.987-45.532-15.674-21.321-33.948-39.971-54.54-55.745-22.283-17.742-41.627-35.378-59.759-54.189-13.352-14.403-24.234-30.986-32.083-49.184-9.129-23.097-14.172-48.553-14.172-75.187 0-1.626 0.019-3.247 0.056-4.863-0.004-4.61-0.004-12.694 0.427-22.934h78.902c-0.025 1.402-0.039 3.056-0.039 4.713 0 22.018 2.508 43.451 7.255 64.027 3.572 12.119 9.824 24.346 18.031 34.988 15.812 17.788 32.962 34.032 51.423 48.696 32.025 24.373 58.577 52.141 80.294 83.512 13.691 22.6 21.325 48.44 21.325 76.062 0 0.397-0.002 0.795-0.005 1.191 0.002 0.205 0.003 0.519 0.003 0.832 0 48.802-22.601 92.325-57.907 120.674z" />
<glyph unicode="&#xe91e;" glyph-name="radio-checked" d="M512 806.4c-197.939 0-358.4-160.461-358.4-358.4s160.461-358.4 358.4-358.4c197.939 0 358.4 160.461 358.4 358.4s-160.461 358.4-358.4 358.4zM512 755.2c169.662 0 307.2-137.538 307.2-307.2s-137.538-307.2-307.2-307.2c-169.662 0-307.2 137.538-307.2 307.2s137.538 307.2 307.2 307.2zM512 627.2c98.969 0 179.2-80.231 179.2-179.2s-80.231-179.2-179.2-179.2c-98.969 0-179.2 80.231-179.2 179.2s80.231 179.2 179.2 179.2z" />
<glyph unicode="&#xe91f;" glyph-name="radio-unchecked" d="M512 806.4c-197.939 0-358.4-160.461-358.4-358.4s160.461-358.4 358.4-358.4c197.939 0 358.4 160.461 358.4 358.4s-160.461 358.4-358.4 358.4zM512 755.2c169.662 0 307.2-137.538 307.2-307.2s-137.538-307.2-307.2-307.2c-169.662 0-307.2 137.538-307.2 307.2s137.538 307.2 307.2 307.2z" />
<glyph unicode="&#xe920;" glyph-name="reply" d="M409.6 627.2v204.8l-358.4-358.4 358.4-358.4v209.92c256 0 435.2-81.92 563.2-261.12-51.2 256-204.8 512-563.2 563.2z" />
<glyph unicode="&#xe921;" glyph-name="search" d="M406.682 342.528c-0.015 0-0.033 0-0.051 0-116.36 0-210.688 94.328-210.688 210.688s94.328 210.688 210.688 210.688c116.27 0 210.542-94.182 210.688-210.418 0.002-0.318 0.003-0.679 0.003-1.039 0-115.936-93.984-209.92-209.92-209.92-0.253 0-0.506 0-0.759 0.001zM687.565 342.528h-37.325l-14.029 14.336c46.474 51.484 74.909 120.032 74.909 195.222 0 0.487-0.001 0.975-0.004 1.462-0.204 167.821-136.357 303.848-304.281 303.848-168.050 0-304.282-136.232-304.282-304.282s136.232-304.282 304.282-304.282c0.294-0.001 0.642-0.002 0.99-0.002 75.377 0 144.079 28.576 195.865 75.486l13.781-14.557v-37.376l234.086-233.984 70.195 70.144z" />
<glyph unicode="&#xe922;" glyph-name="shield" d="M512-38.4s-409.6 143.872-409.6 397.824v427.52l409.6 147.456 409.6-147.456v-427.52c0-253.952-409.6-397.824-409.6-397.824zM682.394 600.064l-204.493-206.848-112.179 113.664-68.147-69.12 180.429-181.76 68.096 68.608 204.442 206.336z" />
<glyph unicode="&#xe923;" glyph-name="smile" d="M512 908.8c-254.493 0-460.8-206.307-460.8-460.8s206.307-460.8 460.8-460.8c254.493 0 460.8 206.307 460.8 460.8s-206.307 460.8-460.8 460.8zM691.2 550.4c-42.415 0-76.8 34.385-76.8 76.8s34.385 76.8 76.8 76.8c42.415 0 76.8-34.385 76.8-76.8s-34.385-76.8-76.8-76.8zM332.8 550.4c-42.415 0-76.8 34.385-76.8 76.8s34.385 76.8 76.8 76.8c42.415 0 76.8-34.385 76.8-76.8s-34.385-76.8-76.8-76.8zM512 140.8c-151.361 0.066-277.053 109.881-301.822 254.182l603.902 1.818c-25.027-146.118-150.719-255.933-302.073-256z" />
<glyph unicode="&#xe924;" glyph-name="tag" d="M921.6 466.432l-391.68 391.68c-15.809 15.513-37.492 25.088-61.411 25.088-0.010 0-0.020 0-0.031 0h-304.638c-47.977-0.231-86.809-39.062-87.040-87.018v-304.662c0-0.045 0-0.097 0-0.15 0-24.135 9.783-45.986 25.6-61.802l391.629-391.68c15.816-15.513 37.506-25.088 61.432-25.088 0.003 0 0.006 0 0.008 0 0.082 0 0.18 0 0.277 0 23.934 0 45.581 9.793 61.152 25.59l304.701 304.65c15.806 15.526 25.601 37.126 25.601 61.013 0 0.15 0 0.3-0.001 0.45-0.071 24.147-9.835 46.024-25.606 61.935l0.006-0.006zM229.171 665.6c-36.053 0-65.279 29.227-65.279 65.28s29.227 65.28 65.28 65.28c35.963 0 65.134-29.081 65.279-65.010 0-0.090 0.001-0.18 0.001-0.27 0-36.053-29.227-65.28-65.28-65.28 0 0 0 0 0 0v0z" />
<glyph unicode="&#xe925;" glyph-name="text" d="M614.4 192h-358.4v102.4h358.4v-102.4zM768 396.8h-512v102.4h512v-102.4zM768 601.6h-512v102.4h512v-102.4zM870.4 908.8h-716.8c-56.484-0.174-102.226-45.916-102.4-102.383v-716.817c0.174-56.484 45.916-102.226 102.383-102.4h716.817c56.484 0.174 102.226 45.916 102.4 102.383v716.817c-0.174 56.484-45.916 102.226-102.383 102.4z" />
<glyph unicode="&#xe926;" glyph-name="th" d="M0 960v-1024h1024v1024h-1024zM51.2 908.8h921.6v-921.6h-921.6v921.6zM153.6 806.4h204.8v-204.8h-204.8v204.8zM409.6 806.4h204.8v-204.8h-204.8v204.8zM665.6 806.4h204.8v-204.8h-204.8v204.8zM153.6 550.4h204.8v-204.8h-204.8v204.8zM409.6 550.4h204.8v-204.8h-204.8v204.8zM665.6 550.4h204.8v-204.8h-204.8v204.8zM153.6 294.4h204.8v-204.8h-204.8v204.8zM409.6 294.4h204.8v-204.8h-204.8v204.8zM665.6 294.4h204.8v-204.8h-204.8v204.8z" />
<glyph unicode="&#xe927;" glyph-name="th-large" d="M51.2 908.8h409.6v-409.6h-409.6v409.6zM563.2 908.8h409.6v-409.6h-409.6v409.6zM51.2 396.8h409.6v-409.6h-409.6v409.6zM563.2 396.8h409.6v-409.6h-409.6v409.6z" />
<glyph unicode="&#xe928;" glyph-name="times" d="M874.035 158.208l-72.397-72.192-289.638 289.792-289.638-289.792-72.397 72.192 289.638 289.792-289.638 289.792 72.397 72.192 289.638-289.792 289.638 289.792 72.397-72.192-289.638-289.792z" />
<glyph unicode="&#xe929;" glyph-name="trash" d="M870.4 857.6h-179.2l-51.2 51.2h-256l-51.2-51.2h-179.2v-102.4h716.8v102.4zM204.8 89.6c0.174-56.484 45.916-102.226 102.383-102.4h409.617c56.484 0.174 102.226 45.916 102.4 102.383v614.417h-614.4v-614.4zM358.4 550.4h102.4v-460.8h-102.4v460.8zM563.2 550.4h102.4v-460.8h-102.4v460.8z" />
<glyph unicode="&#xe92a;" glyph-name="user" d="M512 349.696c-136.55 0-409.6-61.952-409.6-186.88v-124.416h819.2v124.416c0 124.928-273.050 186.88-409.6 186.88zM512 448.512c113.108 0 204.799 91.692 204.799 204.8s-91.692 204.8-204.8 204.8c-113.108 0-204.8-91.692-204.8-204.8 0-0.18 0-0.36 0.001-0.54-0.020-1.020-0.031-2.255-0.031-3.494 0-110.902 89.904-200.806 200.806-200.806 1.415 0 2.827 0.015 4.235 0.044z" />
<glyph unicode="&#xe92b;" glyph-name="user-square" d="M51.2 806.417c0.174 56.467 45.916 102.209 102.4 102.383h716.817c56.467-0.174 102.209-45.916 102.383-102.4v-716.817c-0.174-56.467-45.916-102.209-102.4-102.383h-716.817c-56.467 0.174-102.209 45.916-102.383 102.4v716.8zM512 396.8c-86.17 0-255.334-44.032-255.334-136.192v-68.096h510.669v68.096c0 92.16-169.165 136.192-255.334 136.192zM512 448c0.106 0 0.232 0 0.357 0 70.692 0 128 57.308 128 128s-57.308 128-128 128c-70.692 0-128-57.308-128-128 0-0.18 0-0.36 0.001-0.539 0.29-70.319 57.283-127.258 127.622-127.46z" />
<glyph unicode="&#xe92c;" glyph-name="video" d="M742.4 499.2v204.8c0.102 1.167 0.16 2.526 0.16 3.898 0 26.213-21.25 47.462-47.462 47.462-1.372 0-2.73-0.058-4.073-0.172l-611.358 0.012c-1.297 0.12-2.804 0.188-4.327 0.188-27.485 0-49.766-22.281-49.766-49.766 0-0.57 0.010-1.139 0.029-1.704l-0.002-511.918c-0.017-0.484-0.026-1.052-0.026-1.622 0-27.485 22.281-49.766 49.766-49.766 1.523 0 3.031 0.068 4.519 0.202l595.981-0.014c1.856-0.2 4.009-0.314 6.189-0.314 30.367 0 55.562 22.141 60.323 51.16l0.048 153.954 256-179.2v563.2zM179.2 652.8h409.6c28.277 0 51.2-22.923 51.2-51.2v-307.2c0-28.277-22.923-51.2-51.2-51.2h-409.6c-28.277 0-51.2 22.923-51.2 51.2v307.2c0 28.277 22.923 51.2 51.2 51.2z" />
<glyph unicode="&#xe92d;" glyph-name="wrench" d="M51.2 806.417c0.174 56.467 45.916 102.209 102.4 102.383h716.817c56.467-0.174 102.209-45.916 102.383-102.4v-716.817c-0.174-56.467-45.916-102.209-102.4-102.383h-716.817c-56.467 0.174-102.209 45.916-102.383 102.4v716.8zM813.67 620.032c-1.838-3.928-4.117-7.304-6.836-10.27l-93.208-90.594c-6.535-6.338-15.46-10.246-25.297-10.246-10.344 0-19.679 4.321-26.299 11.256l-77.735 80.398c-6.369 6.586-10.293 15.57-10.293 25.47 0 10.283 4.234 19.578 11.054 26.235l93.294 90.631c2.529 2.265 5.455 4.157 8.648 5.551-15.901 5.12-34.426 8.022-53.629 8.022-102.985 0-186.47-83.486-186.47-186.47 0-22.454 3.969-43.981 11.243-63.919l-240.388-232.176c-7.592-7.393-12.301-17.714-12.301-29.135 0-10.961 4.338-20.91 11.392-28.221l61.736-63.988c7.371-7.657 17.708-12.414 29.157-12.414 10.94 0 20.866 4.343 28.147 11.4l244.828 238.070c16.202-5.105 34.834-8.046 54.152-8.046 102.872 0 186.266 83.394 186.266 186.266 0 18.595-2.725 36.554-7.797 53.498z" />
<glyph unicode="&#xe92e;" glyph-name="graduation-cap" d="M514.509 857.6s-469.043-254.464-463.36-256.512 463.36-257.024 463.36-257.024l355.891 206.336v-307.2l102.4 15.36v342.528zM154.47 448v-215.552l330.906-194.048 333.107 204.8v204.8l-330.138-199.168z" />
</font>
</defs>
</svg>
